<?xml version="1.0" encoding="UTF-8"?>
<svg version="1.1" xmlns="http://www.w3.org/2000/svg" width="512" height="512">
<path d="M0 0 C18.12740976 15.06268382 30.64609072 35.62613629 33.59423828 59.32470703 C34.68873809 80.35935595 32.48452594 100.43218903 20.97460938 118.57299805 C20.5278183 119.27965103 20.08102722 119.98630402 19.62069702 120.71437073 C19.28196564 121.24578171 18.94323425 121.77719269 18.59423828 122.32470703 C19.78573486 122.26412109 20.97723145 122.20353516 22.20483398 122.14111328 C61.98171625 120.13841968 61.98171625 120.13841968 78.09423828 119.94970703 C79.61658081 119.91103516 79.61658081 119.91103516 81.16967773 119.87158203 C93.44709432 119.83843062 103.4723382 124.24036904 112.59423828 132.32470703 C120.94535677 140.80211843 125.59920297 152.06549438 125.84423828 163.94970703 C125.67586915 176.39031507 121.050416 187.31297535 112.66455078 196.40673828 C105.46072309 203.08047299 97.97630659 206.00828808 88.59423828 208.32470703 C88.71541016 209.07341064 88.83658203 209.82211426 88.96142578 210.59350586 C96.48497086 257.82907083 96.48497086 257.82907083 83.50830078 276.82470703 C79.26697521 282.36439758 74.75589796 286.60291341 68.9453125 290.4465332 C68.13150116 290.98581955 67.31768982 291.5251059 66.47921753 292.08073425 C65.85717438 292.49124527 65.23513123 292.90175629 64.59423828 293.32470703 C64.73204712 294.58401031 64.86985596 295.8433136 65.01184082 297.14077759 C66.31471877 309.05564991 67.60962854 320.97136534 68.89690399 332.88793373 C69.5588268 339.01313003 70.22347422 345.13800417 70.89453125 351.26220703 C71.54301243 357.18133141 72.1840975 363.10121582 72.82023621 369.02167892 C73.06321886 371.27117398 73.30878706 373.52039142 73.55708313 375.76930618 C77.63343859 412.73944876 77.63343859 412.73944876 69.67626953 424.05126953 C63.95303545 430.91915043 57.39890901 435.44598398 48.59423828 437.32470703 C47.11832007 437.41378191 45.63897638 437.45372616 44.16037464 437.4561348 C42.82958007 437.46189651 42.82958007 437.46189651 41.47190076 437.46777463 C40.50139034 437.46690815 39.53087991 437.46604167 38.53096008 437.46514893 C36.97952522 437.46960561 36.97952522 437.46960561 35.39674824 437.47415233 C31.92000828 437.48284585 28.44330272 437.48434814 24.96655273 437.48583984 C22.4781334 437.49046757 19.98971479 437.49549217 17.501297 437.50088501 C10.73254908 437.51401584 3.96381465 437.52049211 -2.80494285 437.52489567 C-7.03298108 437.52765958 -11.26101703 437.53189723 -15.48905373 437.53639984 C-27.19951452 437.54859216 -38.90997348 437.55889118 -50.62044048 437.56227493 C-51.3698092 437.5624945 -52.11917791 437.56271407 -52.89125477 437.56294028 C-54.01797265 437.5632677 -54.01797265 437.5632677 -55.16745251 437.56360173 C-56.68951587 437.5640452 -58.21157922 437.56449176 -59.73364258 437.56494141 C-60.48863593 437.56516284 -61.24362928 437.56538427 -62.02150122 437.56561241 C-74.24986245 437.5695588 -86.47816403 437.58700815 -98.70650222 437.61030093 C-111.26676252 437.63403243 -123.82699292 437.64647762 -136.38727599 437.64764285 C-143.43711299 437.64855866 -150.48687229 437.65428716 -157.53668785 437.67246246 C-164.16949061 437.68950256 -170.8021721 437.69110261 -177.43499947 437.68232346 C-179.86780059 437.68155262 -182.30060962 437.68590186 -184.73339081 437.69578171 C-188.05829109 437.70849126 -191.3826685 437.70262928 -194.70756531 437.69219971 C-195.66692212 437.70025611 -196.62627894 437.70831252 -197.61470717 437.71661305 C-207.55121038 437.64387649 -215.74535162 434.7155953 -223.40576172 428.32470703 C-230.77807272 420.56691572 -233.32302717 411.8753228 -233.40576172 401.32470703 C-232.82950348 395.53268179 -231.86161847 389.82500855 -230.87841797 384.09033203 C-230.60659754 382.44152622 -230.33614985 380.79249359 -230.06700134 379.14324951 C-229.36015636 374.83026834 -228.63810064 370.51998863 -227.91168213 366.21026611 C-226.74919901 359.3008121 -225.60786769 352.38786321 -224.47088432 345.4741745 C-224.07322786 343.07199001 -223.66764748 340.67124573 -223.26100159 338.27056885 C-223.01484116 336.7902798 -222.76889384 335.3099553 -222.52319336 333.82958984 C-222.30699844 332.54594543 -222.09080353 331.26230103 -221.86805725 329.9397583 C-221.40789479 326.34138722 -221.23191602 322.94760827 -221.40576172 319.32470703 C-222.62492723 317.65951516 -222.62492723 317.65951516 -224.46826172 316.63720703 C-231.67611365 311.17271766 -236.03923202 302.16030027 -237.40576172 293.32470703 C-238.73889678 276.3073654 -238.58580682 260.10350354 -227.40576172 246.32470703 C-226.65359375 245.38691406 -226.65359375 245.38691406 -225.88623047 244.43017578 C-221.09801355 239.08275105 -215.0217217 235.96528755 -208.40576172 233.32470703 C-207.41576172 233.32470703 -206.42576172 233.32470703 -205.40576172 233.32470703 C-205.36112793 232.69886719 -205.31649414 232.07302734 -205.27050781 231.42822266 C-204.63271724 223.47527653 -203.40132464 215.68096946 -202.03076172 207.82470703 C-201.82193359 206.58333984 -201.61310547 205.34197266 -201.39794922 204.06298828 C-200.12265649 196.68339802 -198.54074093 189.50415228 -196.40576172 182.32470703 C-197.78634766 181.92251953 -197.78634766 181.92251953 -199.19482422 181.51220703 C-212.96083763 177.32318843 -224.59016636 170.94470086 -235.40576172 161.32470703 C-236.16373047 160.66083984 -236.92169922 159.99697266 -237.70263672 159.31298828 C-254.59831387 143.55339976 -263.29476021 120.76723339 -264.59326172 98.04345703 C-265.10569102 71.65334781 -255.26213746 48.68941701 -237.21826172 29.63720703 C-218.79523332 11.85386712 -195.83711545 4.76537977 -170.65966797 4.83447266 C-154.6825421 5.19718703 -141.23994582 9.49361097 -127.40576172 17.32470703 C-127.12216797 16.72787109 -126.83857422 16.13103516 -126.54638672 15.51611328 C-119.19762316 1.39742712 -100.62712831 -9.32426491 -85.92529297 -14.24169922 C-56.58643081 -23.38831785 -24.44234197 -19.38162632 0 0 Z " fill="#000102" transform="translate(325.40576171875,46.67529296875)"/>
<path d="M0 0 C17.39030314 12.11110397 28.70311083 29.41549156 32.95166016 50.31152344 C36.16722545 69.56680481 30.11254989 89.24337803 19.34765625 105.140625 C17.72749051 107.27645639 16.08814533 109.30617566 14.28125 111.28515625 C13.47856689 112.3062146 13.47856689 112.3062146 12.65966797 113.34790039 C9.45074288 115.96161632 6.56184553 115.96688038 2.5859375 116.078125 C1.83845245 116.11448563 1.09096741 116.15084625 0.3208313 116.18830872 C-2.06695918 116.30087993 -4.454838 116.38754463 -6.84375 116.47265625 C-8.42716135 116.54052136 -10.01049751 116.61016528 -11.59375 116.68164062 C-12.36410583 116.71629425 -13.13446167 116.75094788 -13.92816162 116.78665161 C-14.68663391 116.82096283 -15.4451062 116.85527405 -16.2265625 116.890625 C-16.97520569 116.92404999 -17.72384888 116.95747498 -18.49517822 116.99191284 C-24.57502902 117.26391714 -24.57502902 117.26391714 -30.6484375 117.6484375 C-31.38046387 117.69911377 -32.11249023 117.74979004 -32.86669922 117.80200195 C-35.27209492 118.42951027 -36.22807505 119.3129801 -37.71875 121.28515625 C-38.28877918 125.86743371 -38.28877918 125.86743371 -36.56958008 129.97900391 C-33.91719637 131.85082198 -31.96450238 131.67362608 -28.73046875 131.68359375 C-27.4360083 131.68939453 -26.14154785 131.69519531 -24.80786133 131.70117188 C-23.34064692 131.68869326 -21.87344269 131.67497055 -20.40625 131.66015625 C-19.64766693 131.65749756 -18.88908386 131.65483887 -18.10751343 131.65209961 C-2.06884556 131.58820298 13.93306994 130.72401273 29.94638062 129.89037704 C66.95824599 127.96470614 66.95824599 127.96470614 84.48672485 127.86328125 C86.19981237 127.85301399 87.91287541 127.83612525 89.62582397 127.81201172 C99.44036961 127.68814561 107.29690132 128.05182181 115.55078125 133.890625 C121.82675454 140.32548369 124.4708359 146.17458259 124.84375 155.22265625 C124.53676679 164.13476247 121.83163123 170.21266206 115.31494141 176.30126953 C110.21467565 180.70871459 105.05515555 182.6794412 98.6796875 184.65234375 C97.57891373 185.01312012 96.47813995 185.37389648 95.3440094 185.74560547 C91.78801959 186.90543397 88.22269553 188.03293663 84.65625 189.16015625 C82.17063764 189.96424751 79.68569562 190.77041378 77.20141602 191.57861328 C71.23921542 193.51317781 65.26975395 195.42387353 59.29656982 197.32421875 C55.51797546 198.52840047 51.74477883 199.74835786 47.97265625 200.97265625 C43.41420234 202.44983182 38.85455332 203.92314328 34.29296875 205.390625 C33.3469278 205.69518867 33.3469278 205.69518867 32.3817749 206.00590515 C27.67041591 207.52119552 22.95603773 209.0268498 18.24072266 210.52978516 C12.10132693 212.48723626 5.96653659 214.45866616 -0.16501331 216.44055557 C-3.63939978 217.56302579 -7.11536779 218.67986202 -10.59597778 219.78289795 C-14.53319127 221.03079345 -18.46191645 222.30370494 -22.390625 223.578125 C-24.15922127 224.13249992 -24.15922127 224.13249992 -25.96354675 224.69807434 C-41.64963946 229.84479952 -51.65683845 237.7019062 -59.3359375 252.19921875 C-63.45355 261.38824099 -63.14801828 274.27325649 -60.84765625 283.94921875 C-56.51240193 294.95081497 -48.80739482 304.31918882 -38.09765625 309.5703125 C-25.4755628 314.80294857 -12.62360612 314.5902873 0.28125 310.28515625 C-0.43109495 330.31692238 -2.06164212 350.29191824 -3.56878662 370.27563477 C-3.92618911 375.02279403 -4.28032444 379.77019701 -4.63476562 384.51757812 C-5.32629766 393.7736737 -6.0213517 403.02950094 -6.71875 412.28515625 C-30.17999079 412.40199875 -53.64118791 412.49014905 -77.10266113 412.54421711 C-87.99643688 412.56999003 -98.89003176 412.60512329 -109.78369141 412.66235352 C-119.2794879 412.71221621 -128.77515338 412.74445389 -138.27107716 412.75559872 C-143.29836559 412.76211259 -148.32527928 412.77740324 -153.35244751 412.81380653 C-158.08684665 412.84781117 -162.82071761 412.85820015 -167.55522728 412.85069466 C-169.29023295 412.8520672 -171.02525677 412.86197314 -172.76015663 412.88118362 C-189.78901383 413.06045228 -189.78901383 413.06045228 -195.71875 407.28515625 C-201.14245945 401.30516891 -201.09495464 397.12719722 -200.71875 389.28515625 C-200.24189992 385.0518367 -199.54595069 380.86893944 -198.8203125 376.671875 C-198.62529144 375.49986038 -198.43027039 374.32784576 -198.2293396 373.12031555 C-197.60914623 369.40297376 -196.97691835 365.68780781 -196.34375 361.97265625 C-195.72144566 358.2748253 -195.10166454 354.57657977 -194.48260498 350.87820435 C-194.08658826 348.51360932 -193.68919539 346.14924431 -193.29034424 343.78512573 C-192.10449625 336.72604149 -191.00644507 329.6694117 -190.09130859 322.56958008 C-189.71875 320.28515625 -189.71875 320.28515625 -188.71875 318.28515625 C-187.63078125 318.259375 -186.5428125 318.23359375 -185.421875 318.20703125 C-170.13497991 317.68693823 -157.29948092 314.59362265 -146.40625 303.03515625 C-135.9104051 289.80385035 -135.5873319 273.35010859 -136.71875 257.28515625 C-138.51247867 246.29572998 -144.77485848 236.84859664 -153.71875 230.28515625 C-159.80506491 226.38319362 -165.56266509 224.39697735 -172.71875 223.28515625 C-171.72530042 196.51168995 -165.50674397 170.89733367 -145.4140625 152.1328125 C-131.84172161 140.5406984 -116.88263569 136.05283618 -99.32983398 135.66259766 C-93.82707912 135.51815226 -88.96205488 135.03292454 -83.71875 133.28515625 C-81.34814772 129.72925282 -81.02679524 128.47276392 -81.71875 124.28515625 C-83.57614223 121.92618323 -85.84339453 120.1225755 -88.15625 118.22265625 C-98.16454087 109.46935121 -104.76224078 99.7062878 -109.71875 87.28515625 C-110.05003906 86.54265625 -110.38132812 85.80015625 -110.72265625 85.03515625 C-113.21169855 78.16344731 -114.08365699 71.44017006 -114.03125 64.16015625 C-114.02387817 62.92736938 -114.02387817 62.92736938 -114.01635742 61.66967773 C-113.6358035 41.51593256 -106.23974413 24.21371142 -92.53125 9.53515625 C-83.77408126 1.23567926 -73.08586918 -4.78916736 -61.71875 -8.71484375 C-60.71457031 -9.07835937 -59.71039063 -9.441875 -58.67578125 -9.81640625 C-39.12443096 -15.20905655 -16.9281246 -10.385948 0 0 Z " fill="#43CBDE" transform="translate(309.71875,55.71484375)"/>
<path d="M0 0 C-0.4125 1.216875 -0.825 2.43375 -1.25 3.6875 C-2.56741897 7.65857719 -3.86156032 11.63640392 -5.125 15.625 C-5.45757812 16.66914062 -5.79015625 17.71328125 -6.1328125 18.7890625 C-12.28918664 41.58428568 -7.04847148 66.3925498 4.4765625 86.515625 C6.87191527 90.42189259 9.38177622 94.239785 12 98 C11.42894531 98.09796875 10.85789062 98.1959375 10.26953125 98.296875 C-6.82316326 101.44910483 -21.82764751 107.4890253 -35 119 C-35.62261719 119.49113281 -36.24523437 119.98226562 -36.88671875 120.48828125 C-40.60578918 123.45518013 -43.0857389 126.52424405 -45.8125 130.4375 C-49.24401539 134.78758548 -49.24401539 134.78758548 -52.23828125 135.62890625 C-64.39799567 134.97216226 -75.81002884 127.36742226 -85 120 C-86.5778125 118.824375 -86.5778125 118.824375 -88.1875 117.625 C-100.90584778 105.75454207 -110.37126648 87.70691306 -111.33984375 70.20703125 C-112.0390508 47.39540139 -105.52190931 27.46749737 -89.765625 10.609375 C-64.22725036 -13.92749475 -30.30704738 -15.15352369 0 0 Z " fill="#00A8C4" transform="translate(189,78)"/>
<path d="M0 0 C0.08564209 0.68102783 0.17128418 1.36205566 0.25952148 2.0637207 C0.64904757 5.14705243 1.04321902 8.22977286 1.4375 11.3125 C1.57220703 12.38435547 1.70691406 13.45621094 1.84570312 14.56054688 C1.97783203 15.58857422 2.10996094 16.61660156 2.24609375 17.67578125 C2.42676392 19.0975769 2.42676392 19.0975769 2.61108398 20.5480957 C2.95172452 23.12801191 2.95172452 23.12801191 4 26 C4.58931527 33.54776859 4.11585079 40.07728312 1 47 C0.6596875 47.76183594 0.319375 48.52367187 -0.03125 49.30859375 C-6.66877446 62.60606674 -18.92958894 66.36415817 -32.21533203 70.84667969 C-35.31014774 71.87992686 -38.40882371 72.90122607 -41.5078125 73.921875 C-43.16753551 74.47239761 -44.82710934 75.02337012 -46.48654175 75.57476807 C-50.8145861 77.01179428 -55.14432318 78.44364514 -59.47454834 79.87408447 C-66.43941537 82.17581865 -73.40166807 84.48544675 -80.36385727 86.7952652 C-82.79078803 87.5995901 -85.21846634 88.4016247 -87.64627075 89.20330811 C-89.12373413 89.69245695 -90.60118248 90.1816512 -92.07861328 90.67089844 C-93.09150673 91.00437538 -93.09150673 91.00437538 -94.12486267 91.34458923 C-97.62882719 92.50681044 -97.62882719 92.50681044 -101 94 C-109.41807056 94.74827294 -116.66697594 94.09593287 -123.640625 89.11328125 C-130.66045885 83.23263097 -134.48924109 78.34666774 -135.3671875 69.15625 C-135.70871293 61.76114376 -135.55916625 55.13907534 -131 49 C-130.29875 47.96875 -129.5975 46.9375 -128.875 45.875 C-123.0535727 39.4644997 -115.46944353 36.66756825 -107.38891602 34.2253418 C-105.68189614 33.69777471 -103.9752107 33.16912453 -102.26882935 32.63949585 C-101.39506275 32.36908352 -100.52129616 32.09867119 -99.62105179 31.82006454 C-95.46664279 30.52024913 -91.33233953 29.16115845 -87.19897461 27.79614258 C-85.95867666 27.38704163 -85.95867666 27.38704163 -84.69332218 26.96967602 C-82.98044053 26.40418225 -81.2677114 25.83822628 -79.5551281 25.27182961 C-76.81665227 24.36619235 -74.0776461 23.46217449 -71.33851624 22.55851746 C-64.55241701 20.31940807 -57.76714643 18.07779228 -50.98193359 15.83599854 C-45.2031625 13.92680809 -39.42403263 12.01871122 -33.64441109 10.11209679 C-30.96431941 9.22748736 -28.28475536 8.341293 -25.60520935 7.45503235 C-3.03345671 0 -3.03345671 0 0 0 Z " fill="#00A7C3" transform="translate(398,260)"/>
<path d="M0 0 C0.10022461 0.99813721 0.20044922 1.99627441 0.30371094 3.0246582 C2.06205532 20.50170707 3.84440531 37.97385701 5.86938477 55.42230225 C11.97666063 108.05016249 11.97666063 108.05016249 8.4375 115.25 C4.84035106 119.30832188 1.17321886 121.27559371 -4 123 C-5.67220971 123.08754798 -7.34772199 123.11765995 -9.0222168 123.11352539 C-10.04304855 123.11344986 -11.06388031 123.11337433 -12.11564636 123.11329651 C-13.21572525 123.10813522 -14.31580414 123.10297394 -15.44921875 123.09765625 C-16.5769722 123.0962413 -17.70472565 123.09482635 -18.86665344 123.09336853 C-22.47362912 123.0877647 -26.08054304 123.07521153 -29.6875 123.0625 C-32.13085848 123.05748549 -34.57421793 123.0529225 -37.01757812 123.04882812 C-43.01173987 123.03779403 -49.00586552 123.02105215 -55 123 C-55.01217829 121.08041946 -55.02086426 119.16081656 -55.02807617 117.24121094 C-55.03328781 116.17223572 -55.03849945 115.1032605 -55.04386902 114.00189209 C-55.00047743 111.03266985 -54.70032858 108.16624208 -54.27197266 105.22851562 C-53.68924558 100.45371063 -53.55109966 95.63377155 -53.29885864 90.83230591 C-52.47439667 75.41561265 -51.43916892 60.01031261 -50.31802368 44.6126709 C-50.14771143 42.24640255 -49.98232367 39.87977459 -49.8218689 37.51281738 C-49.59376224 34.16498301 -49.34793966 30.81889613 -49.09765625 27.47265625 C-49.03198456 26.45851151 -48.96631287 25.44436676 -48.89865112 24.39949036 C-48.82518463 23.46723129 -48.75171814 22.53497223 -48.67602539 21.57446289 C-48.5884774 20.35262047 -48.5884774 20.35262047 -48.49916077 19.10609436 C-47.8829988 16.50634029 -47.10473113 15.61913661 -45 14 C-43.1096344 13.10774231 -43.1096344 13.10774231 -40.95922852 12.37426758 C-40.15151505 12.09420364 -39.34380157 11.81413971 -38.51161194 11.52558899 C-37.64281906 11.23483994 -36.77402618 10.94409088 -35.87890625 10.64453125 C-34.53444679 10.18478157 -34.53444679 10.18478157 -33.16282654 9.71574402 C-31.2687687 9.07031899 -29.37322091 8.42925224 -27.47631836 7.79223633 C-24.57333967 6.81614471 -21.67613419 5.82422841 -18.77929688 4.83007812 C-16.93782231 4.20477916 -15.09603541 3.58039913 -13.25390625 2.95703125 C-12.3871376 2.6602095 -11.52036896 2.36338776 -10.62733459 2.05757141 C-9.81646896 1.78696396 -9.00560333 1.51635651 -8.17016602 1.23754883 C-7.45973648 0.99788895 -6.74930695 0.75822906 -6.01734924 0.51130676 C-4 0 -4 0 0 0 Z " fill="#00A7C3" transform="translate(374,345)"/>
<path d="M0 0 C5.13037628 3.90041566 8.42256302 8.50267913 10.05859375 14.75 C11.54783216 27.67196578 11.11885468 39.53582873 2.93359375 50.0625 C-3.13409393 56.38674952 -9.31245572 59.02226207 -18.06640625 59.3125 C-27.1376399 58.93903643 -32.09711977 56.04284773 -38.3984375 49.7265625 C-43.67942364 42.96155241 -43.42782773 36.66496661 -43.37890625 28.375 C-43.39888672 27.18132812 -43.41886719 25.98765625 -43.43945312 24.7578125 C-43.43548213 17.57824848 -42.76631615 12.85833069 -38.94140625 6.75 C-38.40515625 5.88375 -37.86890625 5.0175 -37.31640625 4.125 C-26.38766558 -6.80374067 -12.84546785 -8.27072377 0 0 Z " fill="#00A7C2" transform="translate(147.94140625,299.25)"/>
</svg>
